<?xml version="1.0" standalone="no"?><!DOCTYPE svg PUBLIC "-//W3C//DTD SVG 1.1//EN" "http://www.w3.org/Graphics/SVG/1.1/DTD/svg11.dtd"><svg class="icon" height="512" viewBox="0 0 1024 1024" version="1.1" xmlns="http://www.w3.org/2000/svg"><path d="M514.9 324.5c0 6.5 0.2 10.9 0.6 13.2h-0.3c-0.6-1.1-2.2-3.6-4.8-7.6l-39.1-60.2H449v95.8h19.4v-54.5c0-6.9-0.2-12-0.6-15.3h0.3c0.9 2 2.5 4.6 4.6 7.8l40.6 62h20.9v-95.8h-19.4v54.6zM576.9 269.9h-20.4v95.8h56.2V349h-35.8z" fill="#DDEEFE" /><path d="M716.1 814.8c-4.3-71.6 2.7-161.3 45.9-239.3 12.7-22.9 23.8-42.1 33.4-58.6 10.9-18.7 19.6-33.8 26.5-47.1-7.3-22.2-17.1-43.3-29-63 3.9 7.5-3.3 15.6-10.6 23.9-8.4 9.5-7.9 21.2-7.6 32.1 0.4 11 8 23.7-11.4 24.4-19.5 0.6-37.3 6.3-49.9 20.5-12.7 14.1-23.8 40.5-34.9 29.7-11.1-10.9-25.6-12.2-36.1-29-10.7-16.8-11.2-24.3-18-24.1-6.8 0.4-28.7 11.6-22.2-6.2 6.6-17.9 11.8-27.3-2.5-26.8-14.4 0.5-42.4-1.8-50.8 7.6-8.4 9.6-22.7 11.7-33.4 1.3-10.8-10.6-15.9-19.6-32.3-9.8-16.3 9.8-18.5 19.2-36.6 1.4s-35.1-23.2-43.9-22.8c-8.7 0.3-30.8 9.5-31.4-7.3-0.6-16.8-25.7-25.1-25.7-25.1s-17-28.8-11.9-46.6c4.7-17.2 1.9-18.4 4.2-31.4-62.5 47.2-106.7 117.3-120.1 197.9 7 2.2 13.7 5.8 19 11.7 4.8 5.3 10.2 14.6 8.9 28.5-1.9 19.1-4.4 30.5-6.3 38 13.1 6.3 20.4 17.5 20.4 32.5 0 8.3-2 16.1-6.3 23.6 10.1 14.6 11.8 31.1 11.8 62.1 0 23.9 28.5 24.8 31.7 24.8 2.5 0 4.8-0.2 7.2-0.6l4.4-0.6c12.1-1.9 25.5-4.2 39.2-4.2 29.7 0 51.5 10.2 66.9 31.1 3.9 5.2 8.2 9.8 12.4 14.4 18.1 19.8 36.6 40.1 39.4 96.5 19.2 3.7 39 5.6 59.2 5.6 71.6-0.2 137.7-24.4 190.4-65.1z" fill="#DDEEFE" /><path d="M792.3 405.9c-1.7-2.8-3.5-5.6-5.3-8.4 0.4 2.1 1.5 4.2 3.5 6.2 0.7 0.7 1.3 1.4 1.8 2.2z" fill="#FFECD3" /><path d="M835.6 541.7c-9.3 16.1-20.1 34.6-32.2 56.7-30.1 54.4-40 116.6-40.8 172.2 46.7-54.5 75-125.4 75-202.9 0-9.2-0.4-18.2-1.2-27.2l-0.8 1.2zM670 291.2c1.9 2.5 2.9 5.7 2.9 9.9 0 10.4-6 15.6-18 15.6h-8.8v-30.9h9c1.7 0 3.3 0.1 4.7 0.3-11-5.3-22.4-9.9-34.1-13.9v93.5h20.4v-33.4h10.5c10.8 0.2 19.8-2.6 27-8.5 5.9-4.9 9.4-11.1 10.5-18.7-7.8-5-15.8-9.6-24.1-13.9zM376.5 791.4c-6.2-8.3-14.5-11.6-28.8-11.6-9.9 0-20.9 1.8-31.7 3.5l-4.5 0.6c-3.3 0.5-6.6 0.8-9.9 1 32.2 33.2 71.8 59.3 116 75.7-3.8-26.8-13.4-37.3-25.6-50.8-4.4-4.9-10-11-15.5-18.4z" fill="#DDEEFE" /><path d="M803.4 598.3c12.2-22.1 22.9-40.5 32.2-56.7l0.7-1.1c54.9-94.5 63.4-108.9 41.6-259.4-25.5-177-267.3-217-310.5-217l-13.6-0.1C479.2 64 234 83 214.3 326.9c-3.6 33.2-21.2 127.6-58.5 164.9-9 9-27.5 27.6-19.1 48.4 8.1 19.8 29.9 20.2 47.4 20.3 2.9 0.1 8.6 0.1 13.3 0.5-1.8 13.9-3.7 21.2-5.3 26.7-1.5 5.3-3.1 10.9-3.1 18.9 0 9.2 3.4 20.6 18.6 27.3-9 14.4-7.5 28.9 4.3 40.9 4.1 3.9 6.1 6.1 6.1 38.1 0 22.1 8.9 40.9 25.4 54.2 15.4 12.2 37.3 18.7 58.3 17.8 3.3-0.1 6.6-0.5 9.9-1l4.5-0.6c10.8-1.7 21.8-3.5 31.7-3.5 14.3 0 22.6 3.3 28.8 11.6 5.5 7.5 11.1 13.6 15.6 18.4 12.2 13.5 21.8 24 25.6 50.8 1.1 8 1.7 17.4 1.7 28.8 0 37.3 5.2 52.3 6.3 55.1l4.4 11.2c0.9 2.5 3.2 3.9 5.8 3.9l347.1-0.6c2 0 3.7-0.9 4.9-2.5 1.2-1.5 1.6-3.5 1.1-5.4l-6.7-22.5c-0.3-1.2-20.8-71.6-19.5-157.9 0.5-55.7 10.4-117.9 40.5-172.4zM467.7 912.1c-0.5-6.7-1-14.4-1-22.7 0-5.4-0.1-10.4-0.4-15.2-2.8-56.4-21.3-76.7-39.4-96.5-4.2-4.6-8.4-9.2-12.4-14.4-15.4-20.8-37.2-31.1-66.9-31.1-13.7 0-27.1 2.2-39.2 4.2l-4.4 0.6c-2.3 0.4-4.7 0.6-7.2 0.6-3.2 0-31.7-0.9-31.7-24.8 0-31.1-1.7-47.5-11.8-62.1 4.3-7.5 6.3-15.3 6.3-23.6 0-15-7.3-26.2-20.4-32.5 1.9-7.5 4.4-18.9 6.3-38 1.4-13.9-4.1-23.2-8.9-28.5-5.3-5.9-11.9-9.5-19-11.7-5.9-1.8-12.1-2.7-18.1-3.2 48.3-61.4 61.1-176.7 61.8-181.9 16-198.6 209.8-220 292.3-220l13.1 0.2c2.3 0.1 241.6 20.8 264.2 176.6 15.2 105.3 15.9 132.3-9.3 181.6-6.8 13.4-15.6 28.4-26.5 47.1-9.6 16.4-20.7 35.6-33.4 58.6-43.3 78-50.2 167.7-45.9 239.3 2.4 39.5 8.2 73.4 13.2 96.8l-261.3 0.6z" fill="#6FA2BD" /><path d="M659.9 286.1c-1.5-0.2-3-0.3-4.7-0.3h-9v30.9h8.8c12 0 18-5.2 18-15.6 0-4.1-1-7.4-2.9-9.9-2.2-2.8-5.6-4.5-10.2-5.1z" fill="#6FA2BD" /><path d="M790.5 403.6c-2-2-3.1-4.1-3.5-6.2-1.2-6.7 4.7-13.8 10.2-20.1 7.3-8.3 3.8-24.5-5.2-33.4-9.1-9-0.6-19.3-1.1-29.3-0.3-10-10.6-29-17.6-35.9-7-6.8-15.3-14.9-15.6-21.7-0.1-6.7-3.8-20.5-20.2-19.8-16.3 0.6-15.6-15.4-21.9-21.4-6.2-6-13.6-22.9-26.1-16.6-12.5 6.3-15.7-15.4-27-19.2-11.3-3.7-21.1-11-36.8-2.9-15.6 8.1-15.2-14.9-20.6-20.2-5.4-5.2-21-6.8-28.7 1.8-7.7 8.6-23.8 0.9-31.3-6.4-7.4-7.3-27.7-5.3-33.4 1.2-5.8 6.5-28.4 11.1-39.5 11.4-11.2 0.3-32.5 6.2-32.2 12.1 0.2 5.8-32.5 27-51.4 33.6-18.9 6.5-19.8 22.5-19.5 33.4 0.3 10.9-11.4 26.8-24.1 41.1-12.6 14.2-4.2 17.7-6.8 32l-0.3 1.5c-2.3 13 0.5 14.2-4.2 31.4-5 17.8 11.9 46.6 11.9 46.6s25.1 8.3 25.7 25.1c0.5 16.8 22.6 7.6 31.4 7.3 8.8-0.3 25.7 5 43.9 22.8 18.1 17.8 20.3 8.4 36.6-1.4 16.4-9.8 21.6-0.7 32.3 9.8 10.7 10.5 25 8.3 33.4-1.3 8.4-9.4 36.4-7 50.8-7.6 14.3-0.5 9.1 8.9 2.5 26.8-6.5 17.8 15.4 6.6 22.2 6.2 6.8-0.2 7.4 7.4 18 24.1 10.5 16.9 25 18.1 36.1 29 11.1 10.9 22.2-15.6 34.9-29.7 12.6-14.2 30.4-19.8 49.9-20.5 19.4-0.7 11.8-13.4 11.4-24.4-0.3-10.9-0.9-22.6 7.6-32.1 7.4-8.3 14.6-16.4 10.6-23.9-0.2-0.3-0.4-0.6-0.6-1-0.5-0.7-1.1-1.4-1.8-2.2z m-256.3-37.9h-20.9l-40.6-62c-2.1-3.2-3.6-5.8-4.6-7.8h-0.3c0.4 3.3 0.6 8.4 0.6 15.3v54.5H449v-95.8h22.3l39.1 60.2c2.6 4 4.2 6.5 4.8 7.6h0.3c-0.4-2.3-0.6-6.7-0.6-13.2v-54.6h19.4v95.8z m78.5 0h-56.2v-95.8h20.4V349h35.8v16.7z m70.9-41.9c-7.2 5.9-16.2 8.7-27 8.5h-10.5v33.4h-20.4v-95.8h33c23.8 0 35.7 10.1 35.7 30.3 0 1.7-0.1 3.3-0.3 4.9-1 7.6-4.5 13.8-10.5 18.7z" fill="#6FA2BD" /></svg>